<?xml version="1.0" encoding="UTF-8" standalone="no"?>
<!DOCTYPE svg PUBLIC "-//W3C//DTD SVG 1.1//EN" "http://www.w3.org/Graphics/SVG/1.1/DTD/svg11.dtd">
<svg width="100%" height="100%" viewBox="0 0 509 453" version="1.1" xmlns="http://www.w3.org/2000/svg" xmlns:xlink="http://www.w3.org/1999/xlink" xml:space="preserve" xmlns:serif="http://www.serif.com/" style="fill-rule:evenodd;clip-rule:evenodd;stroke-linecap:round;stroke-linejoin:round;stroke-miterlimit:1.5;">
    <g transform="matrix(1,0,0,1,-6.50584,-5.44326)">
        <g>
            <g transform="matrix(1,0,0,1,-2.51745,-3.59989)">
                <circle cx="97.373" cy="34.485" r="20.737" style="fill:rgb(77,176,173);"/>
            </g>
            <g transform="matrix(1,0,0,1,-70.1306,115.537)">
                <circle cx="97.373" cy="34.485" r="20.737" style="fill:rgb(77,176,173);"/>
            </g>
            <g transform="matrix(1,0,0,1,-2.73565,179.565)">
                <circle cx="97.373" cy="34.485" r="20.737" style="fill:rgb(77,176,173);"/>
            </g>
            <g transform="matrix(1,0,0,1,135.274,221.5)">
                <circle cx="97.373" cy="34.485" r="20.737" style="fill:rgb(77,176,173);"/>
            </g>
            <g transform="matrix(1,0,0,1,183.319,263.917)">
                <circle cx="97.373" cy="34.485" r="20.737" style="fill:rgb(77,176,173);"/>
            </g>
            <g transform="matrix(1,0,0,1,225.927,221.068)">
                <circle cx="97.373" cy="34.485" r="20.737" style="fill:rgb(77,176,173);"/>
            </g>
            <g transform="matrix(0.673781,-0.778652,1.2614,1.09151,-327.206,82.3972)">
                <path d="M119.883,261.915C147.512,261.915 169.943,272.206 169.943,284.881C169.943,297.557 147.512,307.848 119.883,307.848C92.255,307.848 69.824,297.557 69.824,284.881C69.824,272.206 92.255,261.915 119.883,261.915ZM119.883,273.398C133.697,273.398 144.913,278.544 144.913,284.881C144.913,291.219 133.697,296.365 119.883,296.365C106.069,296.365 94.854,291.219 94.854,284.881C94.854,278.544 106.069,273.398 119.883,273.398Z" style="fill:rgb(77,176,173);"/>
            </g>
            <g transform="matrix(0.693653,-0.801618,1.28084,1.10833,-195.067,190.694)">
                <path d="M119.883,261.915C147.512,261.915 169.943,272.206 169.943,284.881C169.943,297.557 147.512,307.848 119.883,307.848C92.255,307.848 69.824,297.557 69.824,284.881C69.824,272.206 92.255,261.915 119.883,261.915ZM119.883,273.398C133.697,273.398 144.913,278.544 144.913,284.881C144.913,291.219 133.697,296.365 119.883,296.365C106.069,296.365 94.854,291.219 94.854,284.881C94.854,278.544 106.069,273.398 119.883,273.398Z" style="fill:rgb(77,176,173);"/>
            </g>
            <path d="M153.874,186.205C153.874,186.205 273.953,58.73 297.944,42.377C315.543,30.381 387.055,-4.373 453.166,48.524C531.236,110.99 494.058,202.116 494.289,201.028C494.521,199.94 476.631,241.975 435.114,283.529L295.7,140.684L232.035,194.872C232.035,194.872 201.061,221.141 153.874,186.205Z" style="fill:none;stroke:rgb(77,176,173);stroke-width:24px;"/>
            <g transform="matrix(0.835684,-0.965755,1.30085,1.12564,-309.171,129.344)">
                <path d="M119.883,261.915C147.512,261.915 169.943,272.206 169.943,284.881C169.943,297.557 147.512,307.848 119.883,307.848C92.255,307.848 69.824,297.557 69.824,284.881C69.824,272.206 92.255,261.915 119.883,261.915ZM119.883,273.398C133.697,273.398 144.913,278.544 144.913,284.881C144.913,291.219 133.697,296.365 119.883,296.365C106.069,296.365 94.854,291.219 94.854,284.881C94.854,278.544 106.069,273.398 119.883,273.398Z" style="fill:rgb(77,176,173);"/>
            </g>
            <g transform="matrix(0.835684,-0.965755,1.30085,1.12564,-263.275,167.675)">
                <path d="M119.883,261.915C147.512,261.915 169.943,272.206 169.943,284.881C169.943,297.557 147.512,307.848 119.883,307.848C92.255,307.848 69.824,297.557 69.824,284.881C69.824,272.206 92.255,261.915 119.883,261.915ZM119.883,273.398C133.697,273.398 144.913,278.544 144.913,284.881C144.913,291.219 133.697,296.365 119.883,296.365C106.069,296.365 94.854,291.219 94.854,284.881C94.854,278.544 106.069,273.398 119.883,273.398Z" style="fill:rgb(77,176,173);"/>
            </g>
            <g transform="matrix(1,0,0,1,123.417,18.3309)">
                <circle cx="97.373" cy="34.485" r="20.737" style="fill:rgb(77,176,173);"/>
            </g>
            <g transform="matrix(1,0,0,1,40.5183,68.5471)">
                <circle cx="97.373" cy="34.485" r="20.737" style="fill:rgb(77,176,173);"/>
            </g>
            <path d="M86.319,279.449C86.319,279.449 23.804,216.203 25.801,182.336" style="fill:none;stroke:rgb(77,176,173);stroke-width:24px;stroke-linecap:butt;"/>
            <path d="M28.162,113.8C28.162,113.8 34.789,77.106 65.505,52.197" style="fill:none;stroke:rgb(77,176,173);stroke-width:24px;stroke-linecap:butt;"/>
            <g transform="matrix(0.411263,0.911517,-0.911517,0.411263,220.18,-51.7275)">
                <path d="M28.162,113.8C28.162,113.8 32.76,75.392 65.505,52.197" style="fill:none;stroke:rgb(77,176,173);stroke-width:24px;stroke-linecap:butt;"/>
            </g>
            <path d="M295.87,399.672C295.87,399.672 325.266,432.729 349.681,408.946C374.096,385.162 344.648,359.761 344.648,359.761L284.673,300.631" style="fill:none;stroke:rgb(77,176,173);stroke-width:24px;"/>
            <path d="M359.472,373.889C364.624,378.785 417.679,384.162 398.73,333.508L331.878,263.727" style="fill:none;stroke:rgb(77,176,173);stroke-width:24px;"/>
            <path d="M399.64,329.71C399.64,329.71 424.253,340.417 437.131,324.188C450.008,307.959 436.441,283.643 430.863,280.182" style="fill:none;stroke:rgb(77,176,173);stroke-width:24px;"/>
            <path d="M37.549,143.996L124.777,106.356" style="fill:none;stroke:rgb(77,176,173);stroke-width:8.5px;stroke-linecap:butt;"/>
            <path d="M39.119,159.949L82.988,202.183" style="fill:none;stroke:rgb(77,176,173);stroke-width:8.5px;stroke-linecap:butt;"/>
            <path d="M99.238,203.193L131.21,115.323" style="fill:none;stroke:rgb(77,176,173);stroke-width:8.5px;stroke-linecap:butt;"/>
            <path d="M97.002,271.089L95.96,230.394" style="fill:none;stroke:rgb(77,176,173);stroke-width:8.5px;stroke-linecap:butt;"/>
            <path d="M104.572,216.769L220.454,251.768" style="fill:none;stroke:rgb(77,176,173);stroke-width:8.5px;stroke-linecap:butt;"/>
            <path d="M226.442,246.067L208.148,209.187" style="fill:none;stroke:rgb(77,176,173);stroke-width:8.5px;stroke-linecap:butt;"/>
            <path d="M102.545,41.294L130.11,90.747" style="fill:none;stroke:rgb(77,176,173);stroke-width:8.5px;stroke-linecap:butt;"/>
            <path d="M209.2,58.271L150.02,93.364" style="fill:none;stroke:rgb(77,176,173);stroke-width:8.5px;stroke-linecap:butt;"/>
            <g transform="matrix(1,0,0,1,0,1)">
                <path d="M148.76,111.772L185.561,142.53" style="fill:none;stroke:rgb(77,176,173);stroke-width:8.5px;stroke-linecap:butt;"/>
            </g>
        </g>
    </g>
</svg>
